<svg width="26" height="27" fill="none" xmlns="http://www.w3.org/2000/svg"><path d="M12.933.867c-3.429 0-3.86.015-5.206.076-1.344.062-2.261.275-3.064.587a6.181 6.181 0 00-2.236 1.456A6.2 6.2 0 00.97 5.223C.657 6.026.444 6.944.383 8.288c-.06 1.347-.075 1.777-.075 5.207 0 3.43.015 3.859.076 5.206.062 1.344.275 2.261.586 3.064.323.831.754 1.535 1.456 2.237a6.183 6.183 0 002.236 1.458c.803.312 1.72.525 3.064.587 1.347.06 1.777.076 5.205.076 3.43 0 3.858-.015 5.205-.076 1.344-.062 2.262-.275 3.065-.587a6.178 6.178 0 002.235-1.458 6.198 6.198 0 001.457-2.236c.31-.803.523-1.721.587-3.065.06-1.347.076-1.777.076-5.206 0-3.43-.016-3.86-.076-5.207-.064-1.344-.277-2.262-.587-3.065a6.197 6.197 0 00-1.457-2.237 6.17 6.17 0 00-2.235-1.456c-.805-.312-1.723-.525-3.067-.587-1.347-.06-1.775-.076-5.205-.076h.004zM11.8 3.143h1.133c3.37 0 3.77.012 5.1.072 1.232.057 1.9.262 2.345.435.589.23 1.009.503 1.45.945.442.442.716.863.945 1.452.173.445.379 1.113.435 2.344.06 1.331.074 1.731.074 5.101s-.014 3.77-.074 5.101c-.056 1.231-.262 1.9-.435 2.344a3.904 3.904 0 01-.945 1.45 3.904 3.904 0 01-1.45.945c-.445.174-1.113.38-2.344.435-1.33.061-1.73.074-5.101.074s-3.77-.013-5.102-.074c-1.23-.056-1.898-.262-2.344-.435a3.91 3.91 0 01-1.452-.944 3.914 3.914 0 01-.944-1.452c-.173-.444-.379-1.113-.435-2.344-.06-1.331-.073-1.73-.073-5.103 0-3.372.013-3.77.073-5.101.056-1.231.262-1.9.435-2.345.229-.589.503-1.01.944-1.452a3.918 3.918 0 011.452-.945c.445-.174 1.114-.379 2.344-.435 1.165-.053 1.616-.069 3.97-.071v.003z" fill="#FE66C1"/><path d="M19.644 5.209a1.515 1.515 0 100 3.03 1.515 1.515 0 000-3.03z" fill="#FE66C1"/><path fill-rule="evenodd" clip-rule="evenodd" d="M12.905 6.98a6.484 6.484 0 000 12.968 6.482 6.482 0 006.483-6.484 6.484 6.484 0 00-6.483-6.485zm.027 10.659a4.143 4.143 0 10-.001-8.286 4.143 4.143 0 000 8.286z" fill="#FE66C1"/></svg>