<svg width="26" height="27" fill="none" xmlns="http://www.w3.org/2000/svg"><path fill-rule="evenodd" clip-rule="evenodd" d="M13.232.867c6.972 0 12.624 5.654 12.624 12.628s-5.652 12.628-12.624 12.628S.608 20.469.608 13.495 6.26.867 13.232.867zM6.571 7.884c1.335-.347 6.656-.347 6.656-.347s5.33 0 6.666.368c.726.19 1.304.767 1.493 1.493.368 1.336.358 4.113.358 4.113s0 2.766-.358 4.091a2.116 2.116 0 01-1.493 1.504c-1.335.347-6.666.347-6.666.347s-5.31 0-6.656-.357a2.167 2.167 0 01-1.504-1.504C4.72 16.277 4.72 13.5 4.72 13.5s0-2.766.347-4.102a2.2 2.2 0 011.504-1.514zm9.39 5.616l-4.427-2.556v5.102L15.96 13.5z" fill="#FE66C1"/></svg>